Coordinates
version=1
nRows=8
nColumns=28
inDegrees=yes

Units are S.I. units (second, meters, Newtons, ...)
Angles are in degrees.

endheader
time	pelvis_tilt	pelvis_list	pelvis_rotation	pelvis_tx	pelvis_ty	pelvis_tz	hip_flexion_r	hip_adduction_r	hip_rotation_r	knee_angle_r	ankle_angle_r	subtalar_angle_r	mtp_angle_r	hip_flexion_l	hip_adduction_l	hip_rotation_l	knee_angle_l	socket_flexion	socket_adduction	socket_rotation	socket_tx	socket_ty	socket_tz	foot_flex	lumbar_extension	lumbar_bending	lumbar_rotation
      0.97083333	     13.59179481	     -0.71564821	    -13.54349435	      0.48491941	      1.04451693	      0.30623688	     -5.78542640	     -1.22811060	     -4.76266760	    -23.09239450	      7.18179941	      7.44639141	     40.74378575	     -7.51358932	      1.67696289	     -9.26158272	    -50.18053929	      0.00000000	      0.00000000	      0.00000000	      0.00000000	      0.00000000	      0.00000000	      1.31699760	    -22.94223754	     -2.01272629	     16.03383275
      0.97500000	     13.65764117	     -0.51363081	    -13.75814318	      0.48916443	      1.04542122	      0.30671884	     -6.09258691	     -1.67418201	     -5.17660580	    -22.97237872	      6.89240700	      8.55191568	     42.04336146	     -7.03957862	      1.90833692	     -9.11331595	    -49.71393113	      0.00000000	      0.00000000	      0.00000000	      0.00000000	      0.00000000	      0.00000000	      1.23951696	    -23.00190962	     -2.35281466	     16.28389680
      0.97916667	     13.66651205	     -0.52396058	    -13.98705973	      0.49310180	      1.04630742	      0.30727350	     -6.38258017	     -1.77636535	     -5.19883059	    -22.88559819	      6.87823084	      8.57051854	     42.04566621	     -6.52516395	      1.87783340	     -9.02998072	    -49.31385071	      0.00000000	      0.00000000	      0.00000000	      0.00000000	      0.00000000	      0.00000000	      1.30023786	    -23.11068687	     -2.40246860	     16.30687297
      0.98333333	     13.63157942	     -0.36395777	    -14.21208830	      0.49765295	      1.04725418	      0.30790356	     -6.81990531	     -2.02416312	     -5.04725791	    -22.36445683	      6.74918542	      8.72045459	     42.04820981	     -6.06129888	      2.06265486	     -8.80592237	    -48.66144132	      0.00000000	      0.00000000	      0.00000000	      0.00000000	      0.00000000	      0.00000000	      1.32323747	    -22.98457019	     -2.64947966	     16.41500949
      0.98750000	     13.65064817	     -0.26629543	    -14.46614091	      0.50172506	      1.04814318	      0.30855244	     -7.18100710	     -2.26094035	     -5.07521995	    -22.05779897	      6.35016157	      9.14484518	     42.19187946	     -5.58201202	      2.15457044	     -8.70184964	    -48.13034782	      0.00000000	      0.00000000	      0.00000000	      0.00000000	      0.00000000	      0.00000000	      1.24506697	    -23.02809071	     -2.90672593	     16.81580633
      0.99166667	     13.62525882	     -0.23147396	    -14.66425218	      0.50580966	      1.04897623	      0.30909502	     -7.49438215	     -2.38799588	     -5.01636621	    -21.84077623	      6.32672189	      9.24159911	     42.21863525	     -5.10918132	      2.17896948	     -8.47847231	    -47.51298772	      0.00000000	      0.00000000	      0.00000000	      0.00000000	      0.00000000	      0.00000000	      1.26783407	    -23.03729090	     -3.01587683	     16.85442546
      0.99583333	     13.58534595	     -0.15618796	    -14.85556716	      0.50995288	      1.04977881	      0.30968119	     -7.84072090	     -2.54990840	     -4.96827315	    -21.49039708	      6.22258787	      9.39747248	     42.24090559	     -4.60995314	      2.23291491	     -8.25306584	    -46.89194741	      0.00000000	      0.00000000	      0.00000000	      0.00000000	      0.00000000	      0.00000000	      1.23917622	    -23.01347832	     -3.18657992	     16.93247723
      1.00000000	     13.58370974	     -0.19611823	    -15.05116933	      0.51347348	      1.05045780	      0.31023980	     -8.07001774	     -2.61508827	     -5.01759823	    -21.45679985	      6.20923324	      9.41888932	     42.24330154	     -4.06833954	      2.11979279	     -8.16052172	    -46.44128959	      0.00000000	      0.00000000	      0.00000000	      0.00000000	      0.00000000	      0.00000000	      1.27809365	    -23.19673591	     -3.24758719	     16.94650201
